<svg version="1.1" id="Layer_1" xmlns="http://www.w3.org/2000/svg" xmlns:xlink="http://www.w3.org/1999/xlink" x="0px" y="0px"
	 width="100%" viewBox="0 0 1024 1024" enable-background="new 0 0 1024 1024" xml:space="preserve">
<path fill="#000000" opacity="1.000000" stroke="none" 
	d="
M689.334595,145.485916 
	C720.275024,155.956787 750.836243,166.314041 781.393005,176.684479 
	C783.441040,177.379547 785.471497,178.133133 787.482422,178.929657 
	C801.876526,184.631256 808.224976,193.912155 808.236328,209.602036 
	C808.275085,263.097565 808.258301,316.593201 808.261597,370.088776 
	C808.262756,388.920563 808.271057,407.752319 808.256531,426.584106 
	C808.242554,444.697815 800.093079,455.693420 782.904907,460.840363 
	C777.493591,462.460754 776.898743,463.598145 779.907959,468.426941 
	C790.014526,484.645020 791.578735,502.556519 789.937378,520.893494 
	C789.547180,525.252747 791.171326,527.804077 793.458557,530.615845 
	C804.700867,544.436951 816.052673,558.170105 827.182922,572.080627 
	C832.475769,578.695618 837.644287,585.107727 844.883179,590.034912 
	C870.018982,607.143555 869.098389,639.317383 849.658020,660.671082 
	C844.424072,666.420105 844.304810,666.303406 849.356506,672.240173 
	C850.652161,673.762878 851.763000,675.474426 853.211243,676.829407 
	C856.942383,680.320557 856.996826,684.028198 855.082092,688.591675 
	C851.143372,697.978760 850.185791,708.215576 847.354736,717.937012 
	C845.443237,724.500916 844.768799,724.980286 837.899841,724.100586 
	C833.272461,723.507996 828.726440,722.698059 824.390015,720.848389 
	C821.416077,719.579834 819.793640,720.534180 819.266541,723.962585 
	C818.001709,732.190247 817.876770,732.237854 809.735474,731.499451 
	C807.060974,731.256775 806.149170,732.996826 805.454163,734.857727 
	C799.910461,749.701538 797.007141,745.911560 787.457825,739.244995 
	C781.997253,735.432983 776.595276,731.515198 770.940430,728.010620 
	C766.907471,725.511108 765.648438,722.633423 767.171936,718.035034 
	C771.210999,705.843811 773.924622,693.377319 774.296875,680.456177 
	C774.353271,678.498413 774.446533,676.769592 772.923889,675.447815 
	C768.146484,671.300415 763.327881,667.199890 758.476318,663.139648 
	C758.043884,662.777710 757.256958,662.839539 756.775818,662.735107 
	C754.770569,664.249207 755.386108,666.233887 755.373291,667.977966 
	C755.310974,676.476807 755.514954,684.980469 755.309143,693.474731 
	C754.923828,709.382324 748.322510,721.299255 732.885803,727.293823 
	C732.268311,727.533630 731.661438,727.809082 731.074280,728.115356 
	C730.795471,728.260681 730.574829,728.517578 730.286621,728.758362 
	C731.172302,730.817261 733.162415,730.993713 734.785767,731.593445 
	C741.340881,734.015015 747.950684,736.296936 754.209839,739.443237 
	C765.490417,745.113647 771.489502,753.979004 771.393921,766.903931 
	C771.237427,788.067627 770.811768,809.251953 771.539734,830.391724 
	C772.035339,844.786377 761.657410,858.287842 748.512939,861.616150 
	C725.650146,867.405090 702.890564,873.606934 679.993103,879.251892 
	C658.505737,884.549133 638.235168,880.237000 618.432129,871.134827 
	C596.206299,860.919067 573.242615,852.429565 550.469482,843.509949 
	C541.498779,839.996399 533.087463,835.790161 528.808167,826.273071 
	C526.554810,821.261597 526.172852,815.981140 526.060791,810.666016 
	C525.892151,802.669983 526.076965,794.666565 525.913452,786.670349 
	C525.795044,780.882385 524.756714,780.143982 519.349548,781.458557 
	C507.570221,784.322327 495.847351,787.439636 484.006989,790.020386 
	C479.395264,791.025574 477.818146,793.453064 477.271606,797.799561 
	C476.662231,802.645935 479.501160,804.179077 483.151917,805.611145 
	C489.499023,808.100891 495.913849,810.489441 502.037537,813.461731 
	C512.632629,818.604248 518.546936,826.778076 518.422363,839.131287 
	C518.192200,861.960144 518.414917,884.793335 518.418762,907.624756 
	C518.421082,921.167358 512.156982,931.178833 499.288849,934.861450 
	C474.377655,941.990601 449.481995,949.549377 423.934174,953.913147 
	C402.968109,957.494446 382.411804,954.871582 362.524963,945.967773 
	C339.761658,935.776245 316.505005,926.649780 293.247620,917.614136 
	C281.429504,913.022827 272.996368,902.856873 273.493134,888.517029 
	C274.139008,869.874268 273.757080,851.191467 273.616150,832.527344 
	C273.510773,818.572693 280.262787,808.860168 291.870026,802.069519 
	C299.439758,797.640991 308.039612,796.057983 316.346039,793.697388 
	C323.376740,791.699280 330.384094,789.603394 337.469574,787.819946 
	C341.230347,786.873169 342.209381,784.788086 341.450775,781.253418 
	C340.720398,777.850525 340.149109,774.410400 339.608459,770.970764 
	C338.998077,767.087219 335.655640,766.208069 332.853363,765.049438 
	C323.019562,760.983582 313.077484,757.180359 303.196228,753.228149 
	C300.106812,751.992493 297.129395,750.463562 294.004974,749.333679 
	C292.158417,748.665894 290.113190,746.555542 288.163696,748.998596 
	C286.471619,751.119080 285.467865,753.433899 286.480835,756.379395 
	C289.333832,764.675354 288.932007,773.070007 286.620667,781.406982 
	C282.428009,796.529907 272.916016,807.069702 258.490173,813.003113 
	C254.489838,814.648499 252.734238,816.738647 252.085098,821.235962 
	C249.186371,841.318970 244.744690,861.086975 238.130890,880.315430 
	C235.813034,887.054199 229.338821,889.182922 224.662155,883.983643 
	C220.165222,878.984131 215.443512,878.865784 209.852356,880.484192 
	C207.137329,881.270203 204.433273,882.103394 201.693192,882.791626 
	C196.347961,884.134155 193.358292,881.347595 194.140900,875.820435 
	C194.210571,875.328491 194.463867,874.854797 194.488190,874.365479 
	C194.585907,872.398865 195.294968,870.168945 193.661804,868.646851 
	C191.793594,866.905640 189.911606,868.610229 188.147629,869.306030 
	C183.194305,871.259949 178.323425,873.428894 173.337723,875.292969 
	C168.091476,877.254517 165.901581,876.411438 164.274246,871.029419 
	C162.651291,865.662048 161.798874,860.059082 160.670517,854.546814 
	C160.442642,853.433594 160.816757,852.187378 159.599197,850.994568 
	C156.428848,850.448608 152.756638,853.529785 149.279755,849.668457 
	C146.414368,846.486328 145.170425,843.892029 147.357681,840.055481 
	C149.831558,835.716248 152.110229,831.264893 154.616760,826.945251 
	C159.967026,817.725098 165.063293,808.328064 170.959549,799.466553 
	C173.933273,794.997253 173.347183,791.759033 170.530899,787.920227 
	C164.521988,779.729675 161.875839,770.340637 161.695358,760.325073 
	C161.302139,738.502869 172.670303,724.003906 191.274231,714.462769 
	C194.438522,712.839966 196.751724,710.810181 198.535324,707.990051 
	C217.938995,677.309692 237.279312,646.589233 256.739990,615.945190 
	C258.430725,613.282898 258.574188,610.986633 257.671967,608.029846 
	C251.916397,589.167114 252.882706,571.180054 265.679565,555.161560 
	C269.149261,550.818298 268.370850,545.710815 269.319733,540.923218 
	C274.672729,513.914246 289.196411,499.577026 316.035950,494.602264 
	C327.133850,492.545258 338.139282,489.987427 349.179749,487.624573 
	C350.600250,487.320557 352.134644,487.134094 353.123383,485.731537 
	C352.316132,483.167908 349.866943,483.025330 347.966644,482.356750 
	C332.601318,476.950470 317.195129,471.660431 301.804199,466.326843 
	C292.047729,462.945831 282.903564,458.746246 277.772766,448.931366 
	C275.268646,444.141144 273.642548,439.173828 273.643616,433.707153 
	C273.657806,360.379822 273.641968,287.052490 273.663086,213.725159 
	C273.666962,200.304123 282.020660,188.981827 295.390045,184.550659 
	C309.464020,179.885956 324.143066,177.703644 338.602814,174.709305 
	C381.508057,165.824463 424.488831,157.303818 467.451141,148.695816 
	C484.378265,145.304276 501.334778,142.059555 518.276855,138.742630 
	C519.229248,138.556183 520.321655,138.685196 521.012817,137.529297 
	C521.233276,135.157227 519.211487,134.238998 517.676575,133.136917 
	C506.183685,124.884758 501.891968,113.218475 504.018738,99.886894 
	C506.271179,85.767258 514.710388,75.724281 528.556519,70.873634 
	C548.727600,63.807217 571.325562,75.491417 574.890198,96.716187 
	C576.071228,103.748497 575.390930,110.622963 572.562988,117.255348 
	C571.748352,119.165939 570.142151,120.908905 570.847595,123.641975 
	C575.202209,124.555626 579.177246,122.560410 583.250671,121.687164 
	C598.826416,118.348091 613.908081,119.938583 628.884277,125.174713 
	C648.824402,132.146362 668.923462,138.663193 689.334595,145.485916 
M738.143433,450.556091 
	C750.888489,448.243042 763.635803,445.942566 776.377808,443.613068 
	C786.932190,441.683533 789.852173,438.488647 789.973083,428.117432 
	C790.107117,416.620300 789.979248,405.120117 789.968201,393.621277 
	C789.909119,331.958740 789.768188,270.296051 789.909119,208.633957 
	C789.924744,201.818359 786.835571,198.104340 781.189636,195.624878 
	C779.668579,194.956909 778.078857,194.437836 776.502258,193.904907 
	C722.940369,175.800140 669.372742,157.712494 615.817383,139.588364 
	C609.718323,137.524323 603.506104,136.514557 597.138000,137.574509 
	C586.164185,139.401123 575.227844,141.452179 564.270081,143.376755 
	C561.758789,143.817841 559.921448,144.798981 559.842407,147.922653 
	C561.169678,148.482498 562.330383,149.136078 563.576721,149.473969 
	C599.999146,159.348221 635.847107,171.092453 671.711243,182.772659 
	C692.099487,189.412720 712.391113,196.351608 732.688171,203.267593 
	C735.095337,204.087799 737.335510,204.961060 739.931335,204.370239 
	C743.737976,203.503845 744.399353,205.800537 744.595154,208.506531 
	C742.904785,209.993896 741.264221,210.224960 739.612976,210.512329 
	C724.402832,213.159531 709.196960,215.831116 693.991211,218.503754 
	C656.554993,225.083801 619.131409,231.737076 581.680176,238.230713 
	C547.012695,244.241623 512.330566,250.171722 477.622040,255.939590 
	C468.655396,257.429688 459.699860,259.606506 450.425171,257.650574 
	C434.755920,254.346100 419.849579,248.561188 404.622314,243.836411 
	C368.762207,232.709579 332.986023,221.312256 297.177490,210.019241 
	C295.058380,209.350937 292.979492,208.425278 292.063721,211.703995 
	C291.248688,214.621872 293.220795,215.028030 295.179016,215.686005 
	C330.794983,227.653351 366.420044,239.594055 402.007812,251.644821 
	C415.230591,256.122314 428.799133,259.671265 441.530914,265.485321 
	C449.210327,268.992157 453.456604,274.830719 453.430084,283.884674 
	C453.266998,339.547607 453.348907,395.211243 453.349304,450.874664 
	C453.349426,464.873840 453.337311,478.873077 453.355957,492.872223 
	C453.363190,498.318451 454.735199,499.741028 460.093079,499.416107 
	C463.570007,499.205261 467.051361,498.740265 470.480164,498.112915 
	C505.755951,491.658569 540.990906,484.975891 576.298706,478.702911 
	C609.163757,472.863983 642.115356,467.513947 675.005798,461.815308 
	C695.785522,458.214996 716.522888,454.369873 738.143433,450.556091 
M737.649963,565.500061 
	C737.186768,544.017029 738.775208,522.471191 736.275452,499.600616 
	C732.995300,504.057098 729.170593,503.176666 725.853088,503.836884 
	C691.014832,510.769684 656.102417,517.323975 621.238953,524.130188 
	C575.145996,533.128723 528.814331,540.899719 482.618439,549.378967 
	C470.065247,551.683105 457.259888,552.897461 445.109406,557.114502 
	C435.662445,560.393311 429.361542,569.323242 429.358856,579.177734 
	C429.343109,636.489197 429.376160,693.800598 429.314087,751.112000 
	C429.307007,757.651306 431.592316,763.142090 435.877716,767.873169 
	C438.223206,770.462524 440.839569,772.804382 443.273163,775.316650 
	C446.453979,778.600464 450.086975,779.607605 454.597107,778.409302 
	C463.101471,776.149841 471.686737,774.196533 480.227814,772.073608 
	C529.555481,759.812683 578.842346,747.384827 628.219543,735.326904 
	C659.036255,727.801331 689.990295,720.838440 720.877502,713.601013 
	C734.162415,710.488159 737.666077,706.037170 737.664246,692.452026 
	C737.658569,650.468079 737.654297,608.484070 737.649963,565.500061 
M313.369415,513.020874 
	C300.839539,515.754822 288.042206,529.137451 287.076202,540.570312 
	C288.986664,542.104248 290.986237,540.836609 292.747955,540.389893 
	C296.794128,539.364014 300.778717,539.364075 304.506561,540.973389 
	C307.621124,542.317932 310.166351,541.838562 313.018280,540.425964 
	C323.767761,535.101562 335.377533,532.834717 347.005890,535.015564 
	C371.276794,539.567383 388.424103,553.571350 396.625305,577.136536 
	C409.420288,613.901367 386.723267,650.813110 348.256439,656.490784 
	C345.762695,656.858765 343.582886,657.393066 342.079895,659.973633 
	C328.922272,682.564636 315.577271,705.046509 302.412445,727.633423 
	C299.251343,733.056885 299.463470,733.241333 305.619019,735.655029 
	C332.734039,746.287048 359.815491,757.006653 386.994934,767.471619 
	C400.189209,772.551880 413.553711,777.194092 426.881104,781.921997 
	C430.957520,783.368042 434.949493,783.084717 438.511475,780.402222 
	C438.327087,777.763000 436.310944,776.848816 434.910248,775.559082 
	C427.363037,768.609985 423.336670,760.803528 423.422333,749.798096 
	C423.868683,692.470154 423.562164,635.135986 423.406647,577.804260 
	C423.389801,571.595520 425.484650,566.443787 429.448151,561.886536 
	C436.147369,554.183777 435.907837,553.095764 426.389282,548.529419 
	C425.489502,548.097717 424.585693,547.660889 423.649506,547.320557 
	C394.406189,536.689636 365.688782,524.656738 336.216156,514.627380 
	C328.918915,512.144165 321.825256,509.581787 313.369415,513.020874 
M313.417175,302.012573 
	C316.094452,298.832214 318.448700,295.295349 321.501617,292.529633 
	C340.698395,275.139069 362.731812,272.720795 386.606201,280.657471 
	C393.648804,282.998657 399.969666,287.242950 407.856873,287.413055 
	C414.914795,287.565277 416.517700,287.157593 419.621918,280.375458 
	C422.202271,285.289856 427.008820,284.227356 431.085999,284.804443 
	C434.057068,285.225006 435.973297,283.076843 437.156097,280.472412 
	C437.795319,279.064911 437.435791,277.651367 436.125092,276.993713 
	C433.790558,275.822357 430.890900,274.738678 428.804932,276.523743 
	C426.574249,278.432556 425.854126,277.033264 424.988129,275.673767 
	C419.587982,267.196075 411.270203,262.070465 402.398956,258.887573 
	C368.443298,246.704651 334.227631,235.244827 300.073242,223.620209 
	C297.537964,222.757324 294.965179,221.182953 292.225372,222.025269 
	C291.117645,223.436630 291.359772,224.815475 291.359497,226.121994 
	C291.345734,294.927765 291.342896,363.733551 291.362244,432.539307 
	C291.362671,434.022339 291.517700,435.527740 291.799347,436.984314 
	C292.910370,442.729706 297.468384,444.937103 302.241516,446.653442 
	C318.046570,452.336517 333.934875,457.788605 349.729095,463.501160 
	C379.447449,474.249908 409.131714,485.094574 439.194519,494.855469 
	C445.471039,496.893280 447.638031,495.277313 447.645721,488.807343 
	C447.675049,464.150085 447.591125,439.492584 447.672729,414.835571 
	C447.697083,407.473816 445.829590,401.082855 439.711060,396.278107 
	C437.513550,398.353912 433.922089,398.121429 432.217194,401.458893 
	C429.335815,407.099274 425.388397,412.081940 421.340424,416.964966 
	C399.714355,443.052399 360.534882,451.199432 330.754211,423.601135 
	C308.176422,402.677948 297.483459,376.620361 299.500977,345.432159 
	C300.506042,329.894562 305.317841,315.881439 313.417175,302.012573 
M594.784668,172.469772 
	C604.075317,176.163177 613.656799,179.477249 617.242310,190.475479 
	C619.281189,189.547165 620.742920,188.761887 622.286316,188.201065 
	C627.213745,186.410553 633.114075,188.528656 635.271301,192.784317 
	C637.343079,196.871246 636.414246,201.568222 633.048279,204.026016 
	C628.546875,207.312927 622.540466,207.285980 618.955017,203.117157 
	C615.864563,199.523849 614.370911,200.839767 612.156372,203.748505 
	C608.562866,208.468475 603.268311,211.708313 600.554993,217.798340 
	C597.869263,214.797470 595.318298,216.151733 592.819641,216.960434 
	C586.160156,219.115768 579.405273,220.665466 572.417603,221.474258 
	C567.620911,222.029495 562.307556,221.609344 558.666565,226.102936 
	C558.059937,226.851608 556.575684,227.052094 555.456787,227.198181 
	C539.903992,229.228989 524.309387,229.429306 508.787415,227.223984 
	C496.929657,225.539261 484.943207,223.623764 474.806580,216.621399 
	C470.596405,213.712982 467.819855,211.734558 464.250763,217.436615 
	C462.005035,221.024384 456.163788,221.454025 452.400299,219.226868 
	C448.873230,217.139603 446.609741,214.209244 447.560364,209.747589 
	C448.530212,205.195435 452.126129,203.828506 456.017548,203.213150 
	C457.744415,202.940063 459.614258,203.640457 461.426910,203.821838 
	C463.411011,204.020386 464.856812,203.240631 464.625427,201.082199 
	C464.418793,199.154449 464.114655,196.896210 461.389099,196.865570 
	C460.079620,196.850845 458.755432,197.185822 457.455200,197.448212 
	C430.613586,202.865204 403.763306,208.240707 376.947662,213.783707 
	C373.227570,214.552673 370.953918,213.425232 369.285065,210.477890 
	C369.995605,208.632523 371.471954,208.789978 372.738831,208.527924 
	C387.041077,205.569626 401.325653,202.522522 415.650055,199.675598 
	C431.285675,196.568069 446.964569,193.678345 462.607239,190.605469 
	C464.803864,190.173935 467.515228,190.130615 468.393677,187.408356 
	C470.536011,180.769058 475.946594,177.507019 481.541595,174.441788 
	C485.754761,172.133606 490.080292,170.030563 494.294861,167.724869 
	C496.638489,166.442749 497.348785,164.481430 496.089813,161.357712 
	C430.010498,174.970352 363.754211,186.792450 297.470612,202.058151 
	C299.237640,204.290024 300.390411,204.439819 301.513519,204.783356 
	C311.524445,207.845337 321.531647,210.921326 331.510406,214.086334 
	C368.097076,225.690689 404.654785,237.386780 441.267822,248.907196 
	C448.058929,251.044022 454.996735,253.284592 462.260071,252.421844 
	C480.513092,250.253769 498.386139,245.861435 516.565063,243.091370 
	C552.482422,237.618378 588.218445,230.943726 623.994507,224.569580 
	C629.006653,223.676559 634.282104,223.637436 638.977966,221.716782 
	C638.796143,219.157486 635.661987,219.286499 635.976196,216.697250 
	C638.430115,215.391907 640.589539,215.185440 643.714172,216.142380 
	C649.716248,217.980606 655.974731,220.715225 662.564575,217.858978 
	C662.140259,215.860336 659.421021,215.902542 659.708496,213.754395 
	C665.414185,208.338272 674.938721,209.097672 677.322388,215.351730 
	C679.131592,214.962875 680.964294,214.569000 683.354858,214.055206 
	C680.804382,212.468826 678.038330,211.286301 681.104431,208.650986 
	C684.212097,205.979950 692.451660,206.728882 695.805298,209.715179 
	C696.142761,211.524918 693.171936,210.330963 693.604980,212.645416 
	C701.626282,211.256271 709.602722,209.903992 717.563843,208.466507 
	C718.834412,208.237106 720.339355,207.898407 720.310425,206.105682 
	C720.283997,204.466141 718.914673,204.687744 717.810547,204.345383 
	C666.532227,188.446152 615.771912,170.897217 564.140564,156.121964 
	C561.668640,155.414597 558.909546,153.715637 557.795288,157.941299 
	C556.738098,161.950500 558.076782,163.901016 562.592285,164.709793 
	C573.219360,166.613159 583.797180,168.722366 594.784668,172.469772 
M500.644012,837.234924 
	C500.436890,834.957947 499.375916,833.100098 497.688293,831.635986 
	C491.200745,826.007751 482.913696,824.267517 475.163879,821.401306 
	C474.221313,821.052734 472.879822,821.595276 471.773438,821.904541 
	C447.621796,828.655640 423.368774,835.076111 399.384888,842.379822 
	C389.833374,845.288452 381.420807,845.566162 372.040924,841.404114 
	C353.360291,833.115356 334.081573,826.185364 315.258331,818.202698 
	C305.421539,814.031006 298.435272,815.976807 293.436584,825.628296 
	C290.131378,832.010071 290.690308,833.178589 297.314270,835.923157 
	C321.587921,845.980652 345.824280,856.128174 370.060547,866.275574 
	C381.111816,870.902649 386.440460,879.248779 386.340240,891.242432 
	C386.230255,904.403748 386.372528,917.567200 386.277527,930.728699 
	C386.255066,933.835876 386.864594,935.336487 390.516052,935.886780 
	C401.391876,937.525757 412.130707,936.012695 422.849243,935.008850 
	C435.968903,933.780212 448.441528,929.295288 461.167419,926.115356 
	C471.639618,923.498535 482.094025,920.792664 492.481018,917.859619 
	C497.963745,916.311401 501.092346,912.820557 501.024963,906.571594 
	C500.778839,883.750366 500.786346,860.926453 500.644012,837.234924 
M652.555115,863.014587 
	C656.816345,864.240601 661.108582,863.796448 665.392212,863.209045 
	C680.427551,861.147400 694.861694,856.495911 709.531006,852.869263 
	C721.465515,849.918823 733.353638,846.770996 745.211487,843.524841 
	C750.264404,842.141541 753.738159,839.153503 753.734802,833.303833 
	C753.722473,811.477966 753.790771,789.652039 753.781067,767.826172 
	C753.778198,761.276855 750.626282,756.827209 744.497009,754.466797 
	C732.220215,749.739197 720.222412,744.367249 708.352539,738.706726 
	C702.816162,736.066528 701.171204,736.843201 700.029846,742.774658 
	C698.175903,752.409241 698.913574,753.317810 708.102966,751.243835 
	C712.062988,750.350098 714.179199,751.275024 714.852966,755.576965 
	C713.623901,756.138428 712.489319,756.881042 711.246765,757.190857 
	C689.821411,762.534302 668.391602,767.860840 646.935303,773.078003 
	C644.378174,773.699768 641.583252,773.985474 639.218018,772.235291 
	C634.058899,768.417725 627.736267,766.911926 622.304199,763.782227 
	C613.179016,758.524658 604.125488,758.580444 594.643127,762.153076 
	C593.122803,762.725952 591.286499,762.608765 590.791382,764.902466 
	C591.714294,766.653687 593.685547,766.864746 595.313171,767.501770 
	C608.015747,772.473450 620.938782,776.939575 633.402710,782.446777 
	C645.081482,787.606873 651.955627,796.780945 651.921143,810.095032 
	C651.899658,818.405762 651.439331,826.716553 651.472595,835.026062 
	C651.509094,844.154480 650.613342,853.306458 652.555115,863.014587 
M645.655640,846.435303 
	C645.635864,834.443787 645.684875,822.451721 645.575256,810.460999 
	C645.481445,800.197510 641.024414,792.200073 631.509827,788.244202 
	C614.315735,781.095520 596.855774,774.585144 579.483032,767.869629 
	C578.130188,767.346619 576.489380,766.830811 575.155151,767.116943 
	C566.558899,768.960205 558.061401,771.295349 549.429016,772.927185 
	C543.729980,774.004456 542.202026,777.350586 542.387939,782.464966 
	C542.744873,792.279114 543.193909,802.096741 543.212524,811.913635 
	C543.221802,816.813599 545.176147,820.259277 549.164917,822.647644 
	C551.721008,824.178223 554.413330,825.547791 557.179749,826.650269 
	C582.209839,836.624939 607.267883,846.529297 632.321777,856.444275 
	C645.557312,861.682190 645.581299,861.659363 645.655640,846.435303 
M456.586609,547.730957 
	C476.934479,544.567322 497.026337,540.168396 517.748169,536.218872 
	C515.729980,532.328735 512.890686,531.559998 510.379944,530.445923 
	C507.975037,529.378723 505.214661,528.970825 503.009918,527.620850 
	C496.317383,523.523010 489.172882,520.351807 482.159851,516.908142 
	C479.404755,515.555298 476.664825,515.265381 473.491669,515.995300 
	C462.621155,518.495789 451.849884,518.341125 441.134583,514.524109 
	C423.590210,508.274445 405.893738,502.453094 388.312866,496.303986 
	C382.464355,494.258453 376.812653,491.430420 371.260803,496.975525 
	C370.415131,497.820160 368.800995,497.905823 367.533875,498.316498 
	C359.310547,500.981689 351.083832,503.624603 342.671875,505.668549 
	C341.290009,506.004303 339.139069,505.784271 338.879059,508.120117 
	C339.451263,509.109406 340.357422,509.399292 341.330475,509.724213 
	C362.803253,516.893616 383.899658,525.077881 404.911530,533.478210 
	C414.174042,537.181274 424.945221,538.549316 432.373505,545.020142 
	C440.326630,551.948120 447.525055,550.592712 456.586609,547.730957 
M367.048431,927.384338 
	C375.723541,930.036926 379.620514,927.165771 379.658173,918.014221 
	C379.697937,908.349060 379.532471,898.680969 379.716858,889.019104 
	C379.874786,880.745728 375.703949,875.181091 368.559357,872.338989 
	C345.049500,862.986938 321.866974,852.876587 298.615143,842.921570 
	C292.585052,840.339844 291.226074,841.237366 291.207001,847.915955 
	C291.167053,861.912964 291.518677,875.915649 291.211456,889.905029 
	C291.096741,895.127502 293.067413,897.941406 297.683716,899.722656 
	C320.664917,908.590210 343.102570,918.821045 367.048431,927.384338 
M286.938690,636.599670 
	C284.954498,639.262817 282.821869,641.829346 281.013123,644.606812 
	C274.837982,654.088989 268.752655,663.630066 262.678284,673.177368 
	C254.906128,685.393250 247.244049,697.679749 239.389984,709.842529 
	C237.059982,713.450745 238.036346,715.061584 241.881592,716.216125 
	C245.368866,717.263123 249.021179,718.354614 252.011444,720.322083 
	C256.375610,723.193542 258.605499,721.841553 260.932831,717.827942 
	C268.529480,704.727051 276.313385,691.734070 284.092163,678.739685 
	C287.850861,672.460815 291.723083,666.248718 295.626709,660.058655 
	C296.519562,658.642761 297.807800,657.166992 299.705078,658.389343 
	C301.461365,659.521057 300.371460,661.012024 299.692932,662.337524 
	C299.389557,662.930298 299.104156,663.532288 298.795441,664.122192 
	C289.219543,682.419434 278.623047,700.131287 267.977936,717.814697 
	C262.341858,727.177124 262.326202,727.166870 270.564667,734.317688 
	C270.815460,734.535400 271.023651,734.987915 271.267395,734.999451 
	C273.942535,735.125916 276.522095,739.280457 279.309937,734.488220 
	C291.779816,713.052856 304.601929,691.822327 317.072327,670.387268 
	C320.038208,665.289246 323.754120,660.512939 325.710938,654.319092 
	C323.783112,653.471741 322.166138,652.691406 320.498779,652.040161 
	C312.837311,649.047302 305.770996,644.962341 299.344910,639.890076 
	C295.739441,637.044250 291.776337,636.189941 286.938690,636.599670 
M306.794006,564.304871 
	C296.225555,578.728149 293.030365,594.304810 299.483643,611.364197 
	C309.822479,638.695312 343.306671,649.409729 366.795319,632.594849 
	C380.313293,622.917664 386.213593,609.355347 384.733459,592.725403 
	C382.936829,572.539368 371.729034,559.166748 353.510681,551.834717 
	C338.405273,545.755432 318.600342,549.797119 306.794006,564.304871 
M217.983521,725.691467 
	C214.217972,726.249878 210.409531,726.607178 206.693878,727.399536 
	C183.604141,732.323303 172.114273,754.899780 182.166168,775.449463 
	C196.509949,804.773315 233.515427,813.176086 259.109222,792.920776 
	C272.771118,782.108582 275.964844,762.934082 265.669617,748.824219 
	C254.222488,733.135620 238.032257,726.102356 217.983521,725.691467 
M835.084595,602.392639 
	C822.787354,593.960754 809.514587,592.703125 795.569336,597.250610 
	C786.318176,600.267395 778.262268,605.460327 771.621338,612.476379 
	C767.030334,617.326721 763.635071,622.990234 763.274475,630.144226 
	C762.604614,643.436951 769.028809,652.537842 779.521790,659.653992 
	C782.953064,661.981079 785.833191,662.030273 788.974609,659.449768 
	C788.356262,656.279846 786.032349,654.658936 783.889160,652.807861 
	C775.991211,645.986084 771.411133,637.931702 773.658447,626.929565 
	C775.236755,619.202271 780.306152,613.560730 785.853210,609.322327 
	C790.354431,605.882935 796.977722,605.001587 803.039429,604.143005 
	C814.956909,602.455017 824.152893,607.257690 830.544556,616.642212 
	C836.624451,625.569031 835.818909,635.478088 830.213318,644.472351 
	C823.493896,655.254028 812.941467,659.058716 800.685852,658.542725 
	C797.044617,658.389404 795.051575,660.333374 794.754883,663.187622 
	C794.393494,666.664612 797.477661,666.658813 800.089233,666.656555 
	C814.712952,666.643738 827.123962,661.157837 837.127136,650.749695 
	C850.755249,636.569946 851.529053,615.552429 835.084595,602.392639 
M687.479065,504.701630 
	C702.731934,501.876862 717.984802,499.052063 733.712769,496.139282 
	C731.330811,487.942383 725.343506,485.013702 719.512390,481.890900 
	C714.914734,479.428680 712.080322,482.907562 708.801331,484.938599 
	C707.811707,485.551605 706.872559,486.265076 705.833252,486.775665 
	C701.467712,488.920258 700.358704,488.311798 699.635010,483.476410 
	C690.056519,481.393311 675.347656,483.838928 671.046448,488.421906 
	C674.386108,489.400665 677.348389,487.600616 680.407288,487.696259 
	C683.658997,487.797913 686.889709,488.065094 690.510620,490.333923 
	C688.281738,491.106171 686.819641,491.812958 685.278320,492.112946 
	C677.625916,493.602539 670.002380,495.425323 662.274658,496.297913 
	C651.666931,497.495697 642.108215,500.212982 635.777344,509.644867 
	C634.916992,510.926666 633.001221,511.747345 634.277588,514.614807 
	C651.618042,511.366302 669.123352,508.086914 687.479065,504.701630 
M779.060669,633.345459 
	C779.654297,642.262695 785.208435,647.487671 792.710876,650.855408 
	C800.977356,654.566040 802.583557,653.556396 804.340393,644.600525 
	C803.021606,644.445374 801.692444,644.400513 800.414978,644.119812 
	C793.866272,642.681213 788.789917,637.204468 788.668884,631.530334 
	C788.540710,625.523376 792.878967,620.576355 799.913391,618.708008 
	C806.068970,617.072998 811.990845,619.597961 815.144897,625.202332 
	C818.398743,630.984009 817.249756,636.839844 811.851990,641.707520 
	C810.368958,643.044739 808.717957,644.198364 807.262268,645.562500 
	C805.384827,647.321838 804.314819,649.440308 804.872742,652.594849 
	C812.119995,652.562012 817.857422,649.620056 822.587341,644.671509 
	C830.869934,636.005981 830.397217,623.673462 821.573914,615.840698 
	C813.646667,608.803345 804.634644,607.912170 795.052246,611.720459 
	C785.680847,615.444763 779.407898,621.718079 779.060669,633.345459 
M405.554718,306.946289 
	C392.594604,293.999084 375.697968,286.267365 363.985443,290.103119 
	C391.494843,298.717438 411.088928,315.604523 418.994293,343.389954 
	C426.801605,370.830811 422.452759,396.273254 401.207458,417.963806 
	C408.337097,417.462585 411.267151,412.495575 414.690765,408.794250 
	C424.369598,398.330475 428.292145,385.014801 429.399384,371.388123 
	C431.398438,346.786346 423.709717,325.154999 405.554718,306.946289 
M237.701370,697.246399 
	C239.173538,694.834961 240.558899,692.365234 242.131775,690.021423 
	C253.991089,672.349243 265.771942,654.626343 276.882080,636.468994 
	C278.950531,633.088440 277.796082,629.522339 273.645477,627.132996 
	C270.255890,625.181641 269.625519,628.731689 268.122772,630.371643 
	C267.457214,631.097900 266.997131,632.016113 266.465607,632.860901 
	C251.591934,656.499084 236.721375,680.139160 221.849258,703.778320 
	C220.546448,705.849182 218.335693,708.060242 221.441360,710.167297 
	C224.338165,712.132568 227.258789,712.394714 229.586105,708.873657 
	C232.058777,705.132751 234.768951,701.548828 237.701370,697.246399 
M759.934998,493.917938 
	C761.205750,500.387604 763.350891,506.749084 762.097290,513.511292 
	C760.684875,521.130737 761.430237,529.166687 757.555847,536.319580 
	C756.809387,537.697693 757.014954,539.273560 758.270691,540.458862 
	C759.580383,541.695068 761.115173,541.232971 762.514099,540.763794 
	C764.659058,540.044495 766.292358,538.429138 767.318604,536.564819 
	C770.388977,530.987427 771.878723,524.771179 773.553162,518.710083 
	C775.386108,512.075195 774.636902,505.250183 773.698059,498.434021 
	C772.137085,487.100098 767.215454,477.573334 759.214417,469.580719 
	C756.374756,466.744110 752.775452,467.734650 750.141418,469.532745 
	C747.332336,471.450348 749.362122,473.755371 750.962463,475.863220 
	C754.916687,481.071350 757.833801,486.851105 759.934998,493.917938 
M214.880219,818.353394 
	C212.154541,818.330811 212.256897,820.543457 212.016541,822.236328 
	C211.061584,828.962524 210.021255,835.688477 209.425339,842.450867 
	C208.549820,852.386475 209.031570,852.755676 219.219223,853.708435 
	C221.527817,853.924377 223.811371,854.522705 226.118958,854.608398 
	C229.665222,854.740234 232.116943,853.439941 232.687424,849.411987 
	C233.848907,841.211365 235.307953,833.053223 236.545059,824.862610 
	C236.887833,822.593201 236.759369,820.665039 233.485245,820.410400 
	C227.540848,819.947998 221.629898,819.055481 214.880219,818.353394 
M321.757202,813.950012 
	C334.998779,820.170166 349.178680,824.097412 362.410614,830.246521 
	C372.177826,834.785522 380.320068,831.348267 389.781097,827.029663 
	C381.785187,823.724243 374.443451,821.168579 367.552277,817.714111 
	C359.676971,813.766479 350.135345,813.130798 343.857452,805.900208 
	C343.325989,805.288086 341.578369,805.341125 340.542236,805.623230 
	C334.938324,807.148987 329.373535,808.821228 323.811951,810.498291 
	C322.483673,810.898804 321.368958,811.631836 321.757202,813.950012 
M174.815491,839.649475 
	C176.557297,841.194519 178.267975,842.776489 180.047012,844.277405 
	C184.592743,848.112610 185.896851,848.048523 188.708298,842.780029 
	C193.094116,834.561218 196.481918,825.887695 199.323669,817.011963 
	C199.850204,815.367493 200.131287,813.589905 198.442917,812.482422 
	C194.731033,810.047852 191.616852,806.715332 186.878555,804.612244 
	C181.992813,813.053223 177.350433,821.461670 172.308289,829.623047 
	C169.751633,833.761414 170.302399,836.681030 174.815491,839.649475 
M777.232849,586.286011 
	C779.526489,586.419067 781.873047,586.917236 784.100708,586.594604 
	C787.005127,586.173950 790.534058,585.728577 791.895996,582.913025 
	C793.304749,580.000793 790.490295,577.893433 788.863892,575.595825 
	C783.103821,567.458679 774.645935,561.105896 772.347778,550.156372 
	C768.706909,553.477173 764.642883,555.191956 760.496582,556.847778 
	C756.178284,558.572327 755.510254,561.716553 758.459473,565.515320 
	C764.056885,572.725342 770.121643,579.530151 777.232849,586.286011 
M273.518982,576.001587 
	C269.561798,589.211792 270.619507,601.589539 279.619934,612.638977 
	C280.973236,614.300415 282.374908,615.920349 285.194977,615.040833 
	C284.235046,608.925964 281.932037,603.337646 281.627747,597.343933 
	C280.945435,583.903931 284.001587,571.588989 292.231720,560.753357 
	C293.483093,559.105835 294.647003,557.494751 292.788025,555.486389 
	C290.694977,553.225159 289.075775,555.196655 287.595276,556.195435 
	C280.696136,560.850037 276.422852,567.476501 273.518982,576.001587 
M553.700989,88.728325 
	C546.799255,83.612595 535.845459,82.850365 530.659668,88.233551 
	C530.768555,89.605148 531.575073,90.662804 532.657349,91.458443 
	C540.603271,97.299767 547.976379,103.738785 554.346619,111.320686 
	C556.489807,113.871513 558.269592,112.943748 559.547607,110.094101 
	C562.527405,103.450172 560.698425,95.979752 553.700989,88.728325 
M373.613861,348.648163 
	C372.154724,347.818268 370.597260,347.397308 368.915771,347.207275 
	C363.335693,346.576447 359.066559,349.019928 357.573792,353.820648 
	C355.738800,359.721985 357.997253,365.813629 362.976868,368.394165 
	C367.190765,370.577911 372.250702,369.192444 375.708588,364.908173 
	C380.007019,359.582458 379.572662,354.873596 373.613861,348.648163 
M792.857727,570.149353 
	C795.062622,572.730896 796.476379,577.188049 800.111206,576.836182 
	C802.287048,576.625549 803.202209,576.811707 804.435669,578.146301 
	C805.647827,579.457947 807.033875,581.494263 808.894836,579.706604 
	C810.611328,578.057739 808.861267,576.290649 807.768616,574.918335 
	C804.970764,571.404236 802.087158,567.955322 799.152283,564.554138 
	C792.882263,557.288147 787.564758,549.192505 780.554382,542.571350 
	C774.343933,547.968018 774.402039,548.535522 779.370605,554.088135 
	C783.890137,559.139038 788.138855,564.432251 792.857727,570.149353 
M724.505005,475.070282 
	C723.651611,476.671631 725.062195,477.137329 725.949036,477.696411 
	C732.906555,482.083008 738.924805,487.366730 743.738831,494.166229 
	C745.790283,497.063751 749.123352,499.054321 753.110229,500.060486 
	C751.947144,496.258423 749.798828,493.707977 750.055725,489.504517 
	C750.318420,485.205627 746.394409,481.201355 743.430237,477.560242 
	C736.992859,469.652649 733.579163,469.089233 724.505005,475.070282 
M824.863159,689.236450 
	C825.573303,691.074524 826.621704,692.206665 828.500732,690.551453 
	C829.677917,689.514343 830.804626,689.547974 832.143982,690.053528 
	C834.357117,690.888794 836.625549,691.638367 838.417419,689.245667 
	C840.442383,686.541809 838.953186,684.288330 837.412415,682.061584 
	C836.661621,680.976562 835.969849,679.843506 835.141907,678.820862 
	C834.120605,677.559631 833.135071,676.012390 831.104553,676.796143 
	C828.932373,677.634583 828.211548,679.432312 828.411072,681.575317 
	C828.544556,683.008423 828.989929,684.412537 829.288391,685.795715 
	C827.812378,686.992249 825.370911,686.356079 824.863159,689.236450 
M808.548157,626.900146 
	C805.625122,624.517639 802.501709,622.786072 799.597778,626.626404 
	C797.673828,629.170898 797.207764,632.156494 799.946045,634.674988 
	C802.253113,636.796936 804.901184,637.505310 807.558594,635.424133 
	C810.308533,633.270630 811.735413,630.663513 808.548157,626.900146 
M800.361328,705.768372 
	C803.081848,708.531311 803.335266,705.675903 803.467468,704.159119 
	C803.738892,701.046570 803.571533,697.895203 803.571533,694.759827 
	C803.571533,692.891418 802.944641,691.556702 800.804138,691.404663 
	C798.894409,691.269043 797.628479,691.952026 797.108337,693.881592 
	C796.466064,696.264282 795.720093,698.619568 795.106262,701.009155 
	C794.703857,702.575745 794.053162,704.162109 796.358643,705.106018 
	C798.863403,706.131714 798.354614,703.179749 799.941833,702.647949 
	C800.055481,703.603943 800.149841,704.397461 800.361328,705.768372 
M545.111328,156.511917 
	C545.111328,164.846024 545.111328,173.180130 545.111328,181.514236 
	C545.723206,181.505173 546.335144,181.496124 546.947021,181.487061 
	C548.820129,168.830887 546.873840,156.175735 546.765015,143.520096 
	C546.211243,143.501694 545.657532,143.483292 545.103760,143.464874 
	C545.103760,147.483337 545.103760,151.501816 545.111328,156.511917 
M543.843506,167.501816 
	C543.459351,161.398895 544.797791,155.163330 542.603333,148.474594 
	C539.826660,160.658752 540.266174,178.735229 543.851135,185.384796 
	C543.851135,179.068375 543.851135,173.783920 543.843506,167.501816 
z"/>
<path fill="#000000" opacity="1.000000" stroke="none" 
	d="
M664.263062,351.512390 
	C654.228210,327.582336 658.569580,306.388428 674.855408,287.176910 
	C680.115540,280.971771 684.765015,274.302948 691.396912,269.265717 
	C723.665283,244.756683 769.812317,261.148956 780.515930,300.113312 
	C786.391052,321.500732 775.969238,356.986023 748.950134,367.608795 
	C746.365234,368.625061 744.154419,370.567749 741.719543,371.994293 
	C714.418579,387.989441 680.578552,381.702972 664.263062,351.512390 
M749.895325,309.566010 
	C749.427673,308.156281 749.129761,306.660248 748.464172,305.351166 
	C744.703857,297.955750 735.389038,294.264404 728.168152,297.223267 
	C720.312134,300.442322 715.645386,309.622040 718.069946,317.086853 
	C720.975952,326.033875 728.964233,330.726959 737.731567,328.637909 
	C745.781738,326.719696 751.382996,318.446198 749.895325,309.566010 
M739.821594,279.373077 
	C758.180786,288.145264 764.710938,304.244751 766.795288,323.210815 
	C770.598145,308.517761 766.719604,295.634155 756.664795,285.226746 
	C747.025208,275.249054 735.043030,269.755859 720.181458,272.424103 
	C721.392944,274.943176 722.923340,275.674866 725.105957,275.945679 
	C729.856262,276.535126 734.657532,277.056000 739.821594,279.373077 
z"/>
<path fill="#000000" opacity="1.000000" stroke="none" 
	d="
M554.050781,407.043518 
	C542.644287,417.786133 529.513428,422.462769 514.153870,420.966888 
	C513.909607,416.845856 518.395264,417.732635 519.915161,415.230347 
	C513.373413,408.072113 504.171661,413.050507 496.772858,409.487915 
	C495.363800,414.669037 501.110138,414.861450 501.869110,418.211243 
	C489.928284,417.645477 470.838226,401.030731 469.348511,390.087341 
	C477.296295,386.054382 476.934601,386.081451 476.211700,376.426178 
	C475.803528,370.974823 474.811859,365.589355 474.670258,360.121277 
	C474.594421,357.193115 473.949097,354.468689 471.198425,352.811279 
	C469.152222,351.578369 469.137573,349.761169 470.109711,348.055206 
	C480.983734,328.973053 491.899841,310.328766 515.760803,304.311157 
	C546.444946,296.572815 579.124207,317.856049 583.327454,349.216675 
	C586.563293,373.359406 575.784302,394.778809 554.050781,407.043518 
M518.614685,355.130768 
	C518.029297,363.223999 522.566406,370.053406 530.028381,372.310852 
	C537.489014,374.567932 546.573547,370.848236 550.142517,364.075073 
	C553.620483,357.474518 551.597168,349.014282 545.328857,343.947632 
	C535.539246,336.034698 522.816040,341.040588 518.614685,355.130768 
M563.690430,335.854370 
	C554.933777,324.571289 544.497009,316.533630 528.797058,317.382965 
	C530.131592,321.935944 533.832703,321.678040 536.598389,322.452942 
	C555.984558,327.884583 566.962158,344.050110 564.067749,363.909515 
	C563.414856,368.389130 564.649353,368.925323 567.573242,368.080627 
	C570.129944,362.491119 569.871277,357.110901 569.615540,351.761444 
	C569.346130,346.125458 566.719788,341.278778 563.690430,335.854370 
z"/>
<path fill="#000000" opacity="1.000000" stroke="none" 
	d="
M681.120789,405.990356 
	C681.129272,408.318085 681.021729,410.158203 681.170959,411.977234 
	C681.570557,416.846985 681.035950,420.975555 674.811279,421.347046 
	C673.571655,421.420990 672.464966,422.196808 672.105774,423.316010 
	C670.395935,428.644012 665.585876,429.136902 661.320740,430.071411 
	C644.777100,433.696289 627.916870,435.457581 611.231506,438.266327 
	C606.006042,439.145996 600.715759,439.642303 595.453186,440.298737 
	C592.099182,440.717102 590.562866,439.375580 590.645752,435.841888 
	C590.796570,429.408752 590.688599,422.969543 590.688599,415.350647 
	C595.092407,418.481476 598.307617,420.767242 601.707886,423.184631 
	C601.707886,418.272980 601.843994,413.367188 601.649231,408.474609 
	C601.554993,406.106567 600.178833,404.824524 597.513000,404.375854 
	C594.504150,403.869415 590.925964,403.096924 591.098206,398.813568 
	C591.266296,394.632690 594.529114,394.224884 597.795288,393.621948 
	C622.906372,388.986298 648.256775,385.902283 673.462708,381.885498 
	C675.531921,381.555756 677.699280,381.841919 680.030273,381.841919 
	C681.193176,389.936890 681.116394,397.717346 681.120789,405.990356 
M669.639282,399.983154 
	C668.858582,394.274292 667.691040,393.335144 662.387512,394.074310 
	C659.113342,394.530640 655.835083,394.960449 652.554321,395.367157 
	C641.665344,396.716980 640.721130,397.835114 641.333252,408.737274 
	C641.351868,409.068848 641.327820,409.404419 641.366943,409.733002 
	C641.781433,413.212036 643.725403,414.687958 647.181702,414.108124 
	C651.586731,413.369080 655.988525,412.610504 660.388977,411.845093 
	C669.654846,410.233429 669.654114,410.229309 669.639282,399.983154 
M632.647827,407.635712 
	C632.563538,400.010590 631.425293,399.062592 623.773438,400.277771 
	C622.306335,400.510803 620.853149,400.971924 619.383179,401.021851 
	C614.381775,401.191650 613.160583,403.881073 613.259338,408.545685 
	C613.540833,421.837219 612.374939,420.301544 624.812744,417.940582 
	C632.599121,416.462585 632.607483,416.506500 632.647827,407.635712 
z"/>
<path fill="#000000" opacity="1.000000" stroke="none" 
	d="
M462.993774,466.200531 
	C470.965546,459.798065 481.219788,461.449707 484.078644,469.260193 
	C485.805267,473.977356 484.107605,479.077148 479.856171,481.944641 
	C475.080170,485.165833 468.145874,484.711273 464.166504,480.916107 
	C460.047211,476.987488 459.522034,471.700745 462.993774,466.200531 
M471.794434,473.029022 
	C473.316803,475.402832 475.268768,475.637329 477.041962,473.580017 
	C478.245026,472.184204 477.346985,470.597198 475.924347,469.837372 
	C473.319305,468.446014 471.843719,469.479126 471.794434,473.029022 
z"/>
<path fill="#000000" opacity="1.000000" stroke="none" 
	d="
M772.770996,417.474854 
	C764.970520,416.970062 760.087463,412.524078 760.214111,406.414032 
	C760.329590,400.844452 765.288757,396.067078 771.325562,395.710022 
	C777.313354,395.355865 782.765259,399.700256 783.740295,405.602783 
	C784.694702,411.380310 780.374084,416.214661 772.770996,417.474854 
M774.292175,403.902618 
	C771.479004,403.925842 771.515198,405.593018 772.338501,407.503113 
	C772.878296,408.755676 774.104797,409.152313 775.151855,408.313232 
	C776.906921,406.906830 777.030334,405.353638 774.292175,403.902618 
z"/>
<path fill="#000000" opacity="1.000000" stroke="none" 
	d="
M484.193787,277.012360 
	C485.277008,282.717041 483.485474,286.879242 478.787354,289.571899 
	C474.399597,292.086670 469.992615,292.165649 465.776337,288.985291 
	C462.036530,286.164398 459.995300,282.444550 460.833069,277.801514 
	C461.722717,272.870819 465.289612,270.139679 469.986176,269.095032 
	C474.991272,267.981659 479.036285,270.133179 482.428284,273.625336 
	C483.203308,274.423248 483.558899,275.628540 484.193787,277.012360 
M477.411194,278.190338 
	C476.401764,276.823669 475.324524,275.342438 473.396484,276.520966 
	C472.206268,277.248505 471.696106,278.635071 472.001556,280.019928 
	C472.316223,281.446625 473.430908,282.387421 474.877991,282.277130 
	C476.863495,282.125793 477.716644,280.789520 477.411194,278.190338 
z"/>
<path fill="#000000" opacity="1.000000" stroke="none" 
	d="
M776.934814,217.756317 
	C783.519775,222.461105 784.711609,227.618881 780.815613,233.207153 
	C777.566956,237.866974 769.959167,239.148132 764.658081,235.928085 
	C759.358521,232.708954 757.703064,226.456207 760.777344,221.270782 
	C763.713501,216.318314 769.631775,214.940140 776.934814,217.756317 
M774.778381,224.038574 
	C773.100281,222.256332 771.636475,222.794861 770.280396,224.457062 
	C769.427734,225.502060 769.498718,226.545670 770.313354,227.571136 
	C771.156860,228.632843 772.058411,229.597809 773.605835,228.925888 
	C775.673767,228.027924 776.094727,226.518082 774.778381,224.038574 
z"/>
<path fill="#000000" opacity="1.000000" stroke="none" 
	d="
M543.027588,719.309570 
	C537.068848,720.095947 531.713440,721.707825 525.967224,719.511902 
	C515.185730,715.391968 508.907928,707.240479 508.862976,695.750549 
	C508.740448,664.437805 508.672638,633.124512 508.714905,601.811646 
	C508.720459,597.684570 509.493591,593.558594 509.911438,589.432068 
	C510.009857,588.459900 510.559784,587.178650 510.137909,586.563904 
	C506.175812,580.790100 511.138031,579.565125 514.485291,576.923706 
	C526.730957,567.260376 541.655396,567.025513 555.956665,564.709656 
	C585.113464,559.988159 614.285950,555.377991 643.329041,549.975464 
	C653.598450,548.065186 663.929077,546.416504 674.285706,545.060242 
	C686.810791,543.419922 702.094421,556.368530 702.184387,569.058289 
	C702.429871,603.701416 702.298584,638.347290 702.302856,672.992065 
	C702.303284,676.265686 701.125732,679.193237 699.277405,681.825317 
	C694.571960,688.526062 687.728882,693.160889 682.255981,700.408875 
	C677.674683,691.949768 671.110962,695.390320 665.251526,696.513977 
	C629.088684,703.448730 592.918335,710.331665 556.606628,716.455383 
	C552.190857,717.199951 547.839661,718.327271 543.027588,719.309570 
M668.768250,588.697510 
	C668.662354,580.088928 667.848450,579.514038 658.996582,581.034546 
	C638.724060,584.516785 618.441711,587.941711 598.156860,591.351440 
	C582.777039,593.936707 567.395874,596.516296 551.996216,598.979309 
	C547.822998,599.646851 546.163757,601.586853 546.194580,605.987305 
	C546.361511,629.794006 546.244202,653.602722 546.261719,677.410706 
	C546.265564,682.594238 547.176697,683.267029 552.129395,682.311340 
	C588.273682,675.336792 624.428711,668.420166 660.775208,662.557678 
	C667.622009,661.453369 668.833008,660.123596 668.836426,653.084229 
	C668.846802,631.940308 668.799622,610.796387 668.768250,588.697510 
M534.693298,667.499268 
	C534.697510,646.838684 534.775635,626.177673 534.654419,605.517822 
	C534.623901,600.308533 535.151794,595.298889 539.317688,591.849426 
	C543.687683,588.230896 549.618286,585.663879 554.617859,585.686035 
	C566.641846,585.739197 577.150208,581.844299 587.788391,577.288757 
	C593.566040,574.814636 599.515564,572.330139 605.638000,571.153992 
	C621.126831,568.178467 636.763367,565.976562 652.325989,563.376953 
	C655.597107,562.830566 659.400879,562.600037 661.324951,564.928467 
	C665.041504,569.426086 669.403992,569.213013 674.363892,569.028076 
	C678.202087,568.884949 682.877258,567.814209 684.496704,573.535339 
	C684.927246,575.056152 685.850586,572.588196 687.088806,573.294373 
	C689.237976,587.584351 686.895630,602.322266 689.832153,616.775146 
	C690.532410,603.690186 690.892395,590.594788 690.311462,577.541260 
	C690.138794,573.661072 690.548828,569.319885 688.012451,565.563416 
	C682.569214,557.501953 674.983398,556.048157 666.091431,557.578796 
	C644.833679,561.237915 623.551575,564.755188 602.289734,568.390564 
	C581.190186,571.998169 560.089600,575.603455 539.017090,579.364136 
	C529.461792,581.069458 522.267883,588.789795 522.262817,597.112793 
	C522.242981,629.935791 522.271362,662.758850 522.337585,695.581726 
	C522.352417,702.923889 529.814148,709.202148 537.109558,707.981689 
	C556.106323,704.803833 575.115356,701.684204 594.062561,698.228882 
	C621.819946,693.166870 649.523987,687.813293 677.259033,682.627686 
	C684.128357,681.343323 689.865540,674.775757 689.954529,667.711182 
	C690.023682,662.217773 689.936462,656.722412 689.926270,651.227966 
	C689.919128,647.398499 689.924866,643.569092 689.924866,639.739624 
	C689.481079,639.748535 689.037292,639.757385 688.593506,639.766296 
	C688.470825,640.711426 688.341736,641.655762 688.226440,642.601807 
	C687.517334,648.421265 689.377930,655.345337 681.495300,658.092163 
	C681.041199,658.250366 680.677490,659.176453 680.586731,659.791748 
	C679.348267,668.185608 673.464355,671.035522 666.043762,672.496033 
	C626.135010,680.350525 586.047485,687.206970 545.974670,694.145447 
	C541.275818,694.958984 536.668030,691.616760 535.563049,686.922852 
	C534.131226,680.840088 534.956848,674.641724 534.693298,667.499268 
z"/>
<path fill="#000000" opacity="1.000000" stroke="none" 
	d="
M724.560181,678.249756 
	C729.983398,683.527405 730.620728,688.499634 726.792847,693.461060 
	C722.983032,698.398926 715.519409,699.710083 710.182434,696.379028 
	C705.116821,693.217468 703.370300,687.343018 705.728149,682.087036 
	C708.041809,676.929382 717.181030,672.863647 724.560181,678.249756 
M720.780823,684.541931 
	C718.966187,682.848389 717.407715,683.199402 716.529968,685.392883 
	C716.037109,686.624329 717.015381,687.837036 718.139954,688.109497 
	C720.540771,688.691040 721.466614,687.411011 720.780823,684.541931 
z"/>
<path fill="#000000" opacity="1.000000" stroke="none" 
	d="
M729.016235,526.688171 
	C731.517029,536.378113 721.604980,542.480103 715.612549,541.069824 
	C710.172668,539.789673 706.119507,535.919861 705.682861,531.223145 
	C705.172852,525.738098 707.444336,521.778931 712.327515,519.641602 
	C717.277649,517.474915 723.455872,518.795105 726.881104,522.873047 
	C727.719238,523.870972 728.225769,525.147278 729.016235,526.688171 
M716.842041,527.251465 
	C715.760864,529.956055 716.866821,531.436829 719.579956,531.581116 
	C721.180115,531.666199 722.786621,530.688416 722.282104,528.921326 
	C721.618164,526.596069 719.858337,525.470093 716.842041,527.251465 
z"/>
<path fill="#000000" opacity="1.000000" stroke="none" 
	d="
M463.044373,577.000671 
	C470.603851,578.555237 474.208405,581.679932 474.723083,587.132690 
	C475.207642,592.266724 472.350006,595.644409 468.159363,597.912415 
	C462.384644,601.037781 454.919830,598.217163 452.327484,592.141418 
	C449.804474,586.228149 453.122498,579.728455 459.736877,577.674988 
	C460.685303,577.380554 461.675354,577.220154 463.044373,577.000671 
M466.895081,589.306458 
	C468.050201,587.503540 467.966217,585.898743 466.113403,584.603821 
	C464.836456,583.711365 463.659882,583.843506 462.597443,584.999573 
	C461.636169,586.045410 461.008026,587.223633 461.891571,588.547974 
	C462.999176,590.208130 464.404358,591.235718 466.895081,589.306458 
z"/>
<path fill="#000000" opacity="1.000000" stroke="none" 
	d="
M477.354187,754.139282 
	C476.650330,761.931885 472.864868,765.456482 465.814667,765.320496 
	C459.684753,765.202271 454.348877,760.488281 453.905396,754.799255 
	C453.505707,749.671448 458.440887,744.644653 464.656219,743.848877 
	C470.653412,743.081055 475.816650,747.098328 477.354187,754.139282 
M465.244904,755.430054 
	C466.777069,756.750427 468.415588,757.282959 470.011597,755.657349 
	C470.902344,754.750061 470.847595,753.497620 470.191772,752.460754 
	C469.469696,751.319092 468.367157,750.300659 466.954346,750.746765 
	C465.036682,751.352234 463.900421,752.663696 465.244904,755.430054 
z"/>
<path fill="#000000" opacity="1.000000" stroke="none" 
	d="
M370.605652,728.942871 
	C368.994995,722.353394 371.699707,717.369080 377.941162,714.837402 
	C383.087128,712.750061 390.234131,715.210022 393.145630,720.070740 
	C395.810394,724.519470 394.269928,730.475098 389.506622,734.139893 
	C384.514526,737.980713 377.912323,737.558411 373.239227,732.964050 
	C372.205231,731.947510 371.547882,730.547913 370.605652,728.942871 
M387.431519,725.133911 
	C387.687317,722.571899 386.497528,720.970398 384.025208,720.554749 
	C382.309296,720.266174 381.231262,721.492920 380.649414,722.918884 
	C379.997955,724.515442 380.775757,725.850403 382.049744,726.795898 
	C384.079132,728.301941 385.738647,727.548401 387.431519,725.133911 
z"/>
<path fill="#000000" opacity="1.000000" stroke="none" 
	d="
M427.036743,461.918335 
	C419.354340,468.755096 409.403259,467.360229 405.995056,459.295807 
	C403.552826,453.516907 406.367188,447.312714 412.559601,444.824707 
	C417.792694,442.722107 424.327057,444.322052 427.923523,448.543823 
	C431.820740,453.118622 430.309448,457.402954 427.036743,461.918335 
M415.916229,454.952332 
	C416.805756,456.672028 418.005280,457.979126 420.146820,457.436249 
	C421.492371,457.095154 422.388519,456.136322 422.616974,454.692047 
	C422.842194,453.268280 422.446167,452.015533 421.154419,451.342651 
	C417.934601,449.665222 416.242462,450.981873 415.916229,454.952332 
z"/>
<path fill="#000000" opacity="1.000000" stroke="none" 
	d="
M305.672363,239.094696 
	C310.937897,238.029968 314.852173,240.240601 318.365356,243.115036 
	C321.339020,245.548035 322.156158,249.024567 320.895111,252.605133 
	C319.256866,257.256836 316.150116,260.625610 310.983093,261.292419 
	C304.448456,262.135712 298.585022,258.192810 296.923889,252.053116 
	C295.510681,246.829620 298.620911,242.060074 305.672363,239.094696 
M308.735870,251.696289 
	C310.775696,253.309265 312.515289,252.559006 313.934967,250.849792 
	C315.207336,249.318008 314.091095,248.003357 313.109467,246.884171 
	C312.065765,245.694153 310.725159,244.851425 309.192047,246.042847 
	C307.403473,247.432831 306.689575,249.147278 308.735870,251.696289 
z"/>
<path fill="#000000" opacity="1.000000" stroke="none" 
	d="
M296.730530,426.731903 
	C294.447876,419.150024 296.149261,414.485748 301.889343,411.734650 
	C307.363556,409.110992 314.733276,411.151855 318.281708,416.201355 
	C321.251953,420.428009 320.053894,424.375977 317.483093,428.149597 
	C314.740631,432.175201 309.342896,434.086151 304.775055,432.759949 
	C301.504456,431.810425 298.679993,430.167145 296.730530,426.731903 
M307.318268,417.788666 
	C305.795135,419.016815 304.805511,420.501434 305.817108,422.451691 
	C306.622101,424.003662 307.954773,425.043640 309.837402,424.413086 
	C311.514648,423.851318 312.757355,422.621552 312.497955,420.762054 
	C312.148743,418.259247 310.500977,417.148071 307.318268,417.788666 
z"/>
<path fill="#000000" opacity="1.000000" stroke="none" 
	d="
M617.976807,220.758881 
	C619.089355,223.457001 617.753845,224.507736 615.613953,224.598969 
	C614.158569,224.660995 612.793640,223.507355 613.051331,222.115051 
	C613.583740,219.238235 615.790405,219.961212 617.976807,220.758881 
z"/>
<path fill="#000000" opacity="1.000000" stroke="none" 
	d="
M482.179504,883.557983 
	C488.844055,888.230896 490.469482,893.900818 487.042206,899.460144 
	C483.888885,904.575073 476.696808,906.426208 471.205261,903.536255 
	C465.844299,900.715088 463.189026,894.251099 465.309753,889.184204 
	C467.721924,883.420776 474.693542,880.979736 482.179504,883.557983 
M476.524139,889.826294 
	C474.553925,891.311157 474.460632,893.028748 476.027588,894.819397 
	C476.994110,895.923889 478.279297,896.078796 479.582336,895.436279 
	C480.839050,894.816528 481.739777,893.802002 481.454468,892.341003 
	C480.999573,890.011414 479.416168,889.172424 476.524139,889.826294 
z"/>
<path fill="#000000" opacity="1.000000" stroke="none" 
	d="
M446.005493,895.077148 
	C449.081116,899.180054 450.664642,903.170410 447.757904,907.679382 
	C444.853729,912.184387 440.654083,914.018616 435.425293,913.271240 
	C430.682983,912.593384 427.235901,910.196167 425.429321,905.496521 
	C423.906403,901.534668 425.278015,898.360229 427.630157,895.430359 
	C430.455566,891.911072 434.302338,890.737488 438.703522,891.350220 
	C441.409058,891.726929 443.686127,893.051819 446.005493,895.077148 
M438.307770,897.665588 
	C435.771545,898.091553 434.961029,899.765381 435.545746,902.019409 
	C435.942810,903.549927 437.179565,904.561707 438.885986,904.527954 
	C440.337067,904.499207 441.558502,903.737488 441.934601,902.353271 
	C442.617371,899.840393 440.670166,898.860779 438.307770,897.665588 
z"/>
<path fill="#000000" opacity="1.000000" stroke="none" 
	d="
M427.870300,882.112549 
	C424.077423,882.957214 420.686279,883.696472 417.294189,884.431458 
	C415.042419,884.919434 412.505402,885.990967 411.953766,882.323120 
	C411.499268,879.301147 411.083374,876.166199 415.073151,875.061340 
	C419.216125,873.914062 423.351868,872.698059 427.555573,871.823425 
	C433.182800,870.652649 438.635132,868.527222 444.449249,868.428650 
	C447.139587,876.845276 446.682007,877.637451 438.376862,879.533691 
	C434.996582,880.305481 431.639343,881.178345 427.870300,882.112549 
z"/>
<path fill="#000000" opacity="1.000000" stroke="none" 
	d="
M474.225494,871.401367 
	C470.277863,872.318726 466.756927,873.260315 463.194275,874.001160 
	C461.192780,874.417419 458.553253,875.437561 458.253876,871.997498 
	C458.018219,869.289795 456.030579,865.586975 460.290527,864.370239 
	C468.564758,862.006958 476.957062,860.053894 485.313873,857.985229 
	C487.134644,857.534485 488.421204,858.416443 488.205383,860.283203 
	C487.879974,863.097900 490.186157,866.919434 485.655182,868.324951 
	C482.019592,869.452698 478.310944,870.344910 474.225494,871.401367 
z"/>
<path fill="#000000" opacity="1.000000" stroke="none" 
	d="
M725.027771,812.618164 
	C732.751038,810.786926 738.411377,813.650269 740.433777,820.127686 
	C742.103271,825.475037 738.957703,831.337524 733.215759,833.580200 
	C727.229858,835.918152 720.029663,832.980774 717.324524,827.097046 
	C714.669434,821.322083 717.409424,815.923706 725.027771,812.618164 
M727.672546,823.638611 
	C728.885193,825.526184 730.444336,825.907776 732.285034,824.594116 
	C733.678162,823.600098 734.018188,822.174133 733.398315,820.633362 
	C732.867065,819.312927 731.777771,818.339905 730.325928,818.628357 
	C728.048096,819.080994 726.968567,820.592224 727.672546,823.638611 
z"/>
<path fill="#000000" opacity="1.000000" stroke="none" 
	d="
M688.641235,809.849792 
	C682.904419,811.188904 677.552734,812.368774 672.207458,813.576782 
	C670.405762,813.984070 668.127258,814.783203 667.946533,812.028442 
	C667.766907,809.289490 665.945190,805.114746 669.595093,804.044250 
	C680.687134,800.791138 692.002502,798.299744 703.176880,795.525208 
	C705.851135,804.107849 705.109680,805.573486 697.716553,807.477783 
	C694.821716,808.223389 691.924805,808.960571 688.641235,809.849792 
z"/>
<path fill="#000000" opacity="1.000000" stroke="none" 
	d="
M683.186523,836.823242 
	C679.774109,832.776733 678.395508,828.774597 681.324463,824.227295 
	C684.096497,819.923828 688.032654,817.873291 693.146667,818.394348 
	C698.461487,818.935852 702.071350,821.625427 703.662903,826.908569 
	C704.955566,831.199524 703.080200,834.484253 700.294006,837.231628 
	C696.929443,840.549255 692.657349,841.176453 688.230042,839.721497 
	C686.535706,839.164795 685.043945,837.991882 683.186523,836.823242 
M695.820923,830.341675 
	C697.212341,828.289734 696.543091,826.660095 694.736816,825.319641 
	C693.471436,824.380493 692.301819,824.669556 691.280273,825.777161 
	C690.142090,827.011169 690.018555,828.484558 690.799316,829.836670 
	C691.873962,831.697815 693.476196,832.077332 695.820923,830.341675 
z"/>
<path fill="#000000" opacity="1.000000" stroke="none" 
	d="
M728.923279,789.688354 
	C733.683655,788.831055 737.820557,786.910889 742.304993,786.975464 
	C744.981262,795.057922 743.947083,796.989563 736.125793,798.841125 
	C727.947876,800.776978 719.770325,802.714478 711.703674,804.624939 
	C710.087585,802.002930 710.841614,799.625793 710.662231,797.365295 
	C710.493652,795.240967 711.343323,794.070007 713.594788,793.564148 
	C718.600403,792.439514 723.542603,791.032227 728.923279,789.688354 
z"/>
<path fill="#000000" opacity="1.000000" stroke="none" 
	d="
M617.343140,809.236694 
	C623.132019,813.729126 624.803040,818.163574 622.848816,823.149170 
	C621.166565,827.440918 616.202820,830.529968 611.333191,830.315552 
	C605.894714,830.076111 600.340881,825.920959 598.907471,821.019165 
	C597.159485,815.041687 602.549133,808.422302 609.761780,807.719543 
	C612.290955,807.473022 614.731323,807.818420 617.343140,809.236694 
M613.174072,814.565491 
	C611.029175,814.341553 609.616577,815.138855 609.416504,817.417786 
	C609.252136,819.290771 610.216675,820.647156 611.855652,821.328125 
	C613.263611,821.913086 614.500183,821.206238 615.190063,819.941162 
	C616.316589,817.875610 615.780029,816.137695 613.174072,814.565491 
z"/>
<path fill="#000000" opacity="1.000000" stroke="none" 
	d="
M572.149902,795.394043 
	C578.851074,798.321838 581.830933,802.386169 581.216614,807.382874 
	C580.597290,812.419983 576.042480,816.764282 570.819275,817.299622 
	C564.741394,817.922546 559.878418,814.873169 557.444519,809.130920 
	C555.867126,805.409485 556.968262,802.387817 559.346863,799.486450 
	C562.631348,795.480103 566.764893,794.126465 572.149902,795.394043 
M570.530884,808.490967 
	C572.837097,808.065002 573.972107,806.725830 573.583313,804.358582 
	C573.322571,802.771301 572.418152,801.634338 570.708130,801.526306 
	C569.208374,801.431763 568.241882,802.420776 567.724365,803.656311 
	C566.782410,805.905273 567.873962,807.385986 570.530884,808.490967 
z"/>
<path fill="#000000" opacity="1.000000" stroke="none" 
	d="
M340.313232,878.303345 
	C348.825439,872.600525 359.522736,875.494385 361.338348,883.637146 
	C362.640198,889.475952 360.248108,894.163757 354.469391,897.098206 
	C349.698486,899.521057 342.884827,898.098206 339.475983,893.967407 
	C335.577362,889.242798 335.752075,884.557922 340.313232,878.303345 
M348.677307,882.528320 
	C346.370331,884.922363 347.097565,887.083130 349.455170,888.753052 
	C351.453857,890.168884 352.903931,888.742798 353.895477,887.124451 
	C355.526215,884.462830 353.571381,882.431763 348.677307,882.528320 
z"/>
<path fill="#000000" opacity="1.000000" stroke="none" 
	d="
M325.128204,883.048401 
	C318.756195,888.490601 311.409912,888.651978 307.104370,883.737610 
	C302.637146,878.638733 302.492065,872.963379 306.714905,868.499878 
	C311.370728,863.578735 318.400665,863.168762 323.850464,867.500549 
	C329.283478,871.818848 329.692902,875.931702 325.128204,883.048401 
M320.598083,873.784302 
	C319.880646,871.256470 318.047119,870.897827 315.952789,871.673523 
	C314.262146,872.299622 314.220276,873.934326 314.423492,875.461975 
	C314.644073,877.120361 315.702362,878.341492 317.289581,878.390381 
	C319.739899,878.465881 320.709381,876.818481 320.598083,873.784302 
z"/>
<path fill="#000000" opacity="1.000000" stroke="none" 
	d="
M369.618317,613.396240 
	C361.738007,626.190430 348.722076,631.813599 333.459351,629.243591 
	C321.972504,627.309448 309.546906,614.775818 306.711670,602.263306 
	C302.760498,584.825989 313.335693,567.283508 330.981567,562.003296 
	C346.536041,557.348999 364.748901,566.774719 371.038025,582.780396 
	C375.070953,593.044128 375.012390,603.173096 369.618317,613.396240 
M366.382202,604.821777 
	C368.602356,599.614014 367.537964,594.346497 366.511780,589.139038 
	C364.085510,576.826355 351.422272,566.153442 340.047058,566.680115 
	C318.748291,567.666260 309.628204,585.995605 313.040497,600.641174 
	C315.600769,611.629700 326.030579,622.650452 336.405975,623.639709 
	C350.815063,625.013611 361.451233,618.535583 366.382202,604.821777 
z"/>
<path fill="#000000" opacity="1.000000" stroke="none" 
	d="
M228.623535,794.258423 
	C214.979980,795.862549 204.431320,791.088684 196.597702,780.584412 
	C186.822510,767.476562 188.644135,753.609253 201.187317,743.071533 
	C214.577530,731.822205 237.027542,732.853455 249.095978,745.442078 
	C256.876526,753.557922 259.484039,763.114990 255.792435,773.944702 
	C252.206757,784.463684 244.383652,790.372070 233.957123,793.217651 
	C232.358475,793.653870 230.705734,793.891846 228.623535,794.258423 
M204.722610,747.176819 
	C192.069138,756.931824 195.130539,776.242737 207.644592,784.179626 
	C216.898834,790.048950 231.776413,790.331116 240.767334,784.127808 
	C253.434982,775.387695 254.888367,759.729309 244.028931,748.987427 
	C234.399338,739.461975 218.716003,738.543091 204.722610,747.176819 
z"/>
<path fill="#000000" opacity="1.000000" stroke="none" 
	d="
M573.436157,648.049194 
	C563.700684,644.122864 558.417542,636.989441 558.883179,628.807556 
	C559.414001,619.479797 565.528442,611.956909 574.937500,609.436035 
	C582.958740,607.286926 589.802124,609.939514 595.337952,615.677734 
	C600.955688,621.500854 602.012573,628.590637 599.167786,636.069946 
	C596.256653,643.723633 590.051392,647.276855 582.296814,648.283569 
	C579.523682,648.643616 576.649414,648.224731 573.436157,648.049194 
M579.596497,623.456909 
	C576.319885,624.209534 574.851624,626.328064 575.260864,629.594910 
	C575.531555,631.756042 576.880737,633.246033 579.072754,633.619202 
	C581.625122,634.053711 583.819702,633.144348 584.764404,630.704590 
	C586.379089,626.534485 583.745789,624.678162 579.596497,623.456909 
z"/>
<path fill="#000000" opacity="1.000000" stroke="none" 
	d="
M662.607056,604.901978 
	C664.898926,612.026367 659.393433,621.267944 650.048401,622.159973 
	C642.403198,622.889832 635.513062,616.193726 635.501587,608.411804 
	C635.493408,602.881104 639.512634,597.895996 645.435608,596.090393 
	C650.982239,594.399597 657.306885,596.419556 660.578552,601.021667 
	C661.339844,602.092590 661.828308,603.357422 662.607056,604.901978 
z"/>
<path fill="#000000" opacity="1.000000" stroke="none" 
	d="
M239.310577,765.085938 
	C237.508133,776.367920 227.325012,781.625122 218.322052,776.341614 
	C213.425888,773.468201 210.475464,767.779358 211.438019,763.068115 
	C212.701019,756.886292 217.425583,752.688721 223.931168,751.968445 
	C229.091904,751.397095 235.543457,755.023254 237.840027,759.943481 
	C238.531067,761.424011 238.824020,763.090454 239.310577,765.085938 
M230.862000,761.529114 
	C226.515656,758.380493 222.462814,758.442017 220.655106,761.811768 
	C219.157135,764.604187 219.542328,767.409668 221.916534,769.454407 
	C224.270721,771.481995 227.240570,771.486633 229.748840,769.801941 
	C232.569153,767.907715 233.365875,765.203735 230.862000,761.529114 
z"/>
</svg>